<svg xmlns="http://www.w3.org/2000/svg" xmlns:xlink="http://www.w3.org/1999/xlink" viewBox="0 0 273.16 179.4"><defs><style>.cls-1{fill:#4496f5;}.cls-2{fill:#62deff;}.cls-3{fill:#c4d7ff;}.cls-4{fill:#fff;}.cls-5{fill:url(#linear-gradient);}.cls-6{fill:#3e98f0;}.cls-7{fill:url(#linear-gradient-2);}</style><linearGradient id="linear-gradient" x1="39.46" y1="22.47" x2="39.49" y2="22.47" gradientTransform="translate(0.3 8.04)" gradientUnits="userSpaceOnUse"><stop offset="0" stop-color="#ff0790"/><stop offset="0.99" stop-color="#fb5b46"/></linearGradient><linearGradient id="linear-gradient-2" x1="184.49" y1="134.18" x2="184.56" y2="134.18" gradientTransform="translate(0.3 8.04)" gradientUnits="userSpaceOnUse"><stop offset="0" stop-color="#5b66e2"/><stop offset="1" stop-color="#c922a6"/></linearGradient></defs><title>Asset 1xhopie</title><g id="Layer_2" data-name="Layer 2"><g id="Layer_2-2" data-name="Layer 2"><path class="cls-1" d="M150.76,62.33c-2,.76-4,1.54-6,2.34-2.59,1-5.18,2.11-7.8,3.22q-6.87,2.92-13.39,6L96.69,43.77H134Z"/><path class="cls-1" d="M208.38,126.23c-.46,0-.94,0-1.41,0a23.36,23.36,0,0,0-22.17,16l.06.1-.06-.07-35.79-40q5.52-4.49,10.89-8.31c4.1-3,8.12-5.63,12-8.11Z"/><path class="cls-2" d="M150.76,62.33c-2,.76-4,1.54-6,2.34L134,43.77Z"/><path class="cls-2" d="M208.38,126.23c-.46,0-.94,0-1.41,0a23.36,23.36,0,0,0-22.17,16L159.9,93.92c4.1-3,8.12-5.63,12-8.11Z"/><path class="cls-1" d="M54.75,140.27,14.5,42.17a23.86,23.86,0,0,0,4.81.5,23.33,23.33,0,0,0,20.46-12.1l14.74,107.9-.12.31h.16Z"/><path class="cls-2" d="M70,103.32l-2.21,1.44q-6.63,16.84-13.25,33.71L39.77,30.57v-.11l0,.08Z"/><path class="cls-3" d="M273.16,38.87a347.06,347.06,0,0,0-69.11,24.89c-17.82,8.67-42.67,21-68.84,45a245.42,245.42,0,0,0-29.83,32.85,27,27,0,0,0-46.3.51H57.37l.12-.31Q64.1,125,70.74,108.11L73,106.67a429.46,429.46,0,0,1,65.57-34.83A434.11,434.11,0,0,1,273.16,38.87Z"/><path class="cls-4" d="M273.16,38.87a347.06,347.06,0,0,0-69.11,24.89c-17.82,8.67-42.67,21-68.84,45a245.42,245.42,0,0,0-29.83,32.85,27,27,0,0,0-46.3.51H57.37a321.27,321.27,0,0,1,25-23.77C95.77,107,149.79,62.86,235.25,44.79A362.06,362.06,0,0,1,273.16,38.87Z"/><circle class="cls-1" cx="82.05" cy="156.05" r="23.35"/><circle class="cls-2" cx="82.05" cy="156.05" r="18.4"/><path class="cls-5" d="M39.79,30.54s0,0,0,0v-.11Z"/><circle class="cls-6" cx="19.31" cy="19.31" r="19.31"/><circle class="cls-2" cx="19.31" cy="19.31" r="15.15"/><path class="cls-7" d="M184.86,142.27l-.06-.07v0Z"/><circle class="cls-6" cx="207.83" cy="150.49" r="20.65"/><circle class="cls-2" cx="207.83" cy="150.49" r="15.92"/></g></g></svg>